<svg width="40" height="40" viewBox="0 0 100 100" fill="none" xmlns="http://www.w3.org/2000/svg">
  <path
    d="M20,20 L20,80 L50,80 C65,80 80,65 80,50 C80,35 65,20 50,20 L20,20 Z"
    stroke="#10b981"
    stroke-width="4"
    fill="none"
  />
  <path
    d="M20,50 L50,50 C57.5,50 65,42.5 65,35 C65,27.5 57.5,20 50,20"
    stroke="#10b981"
    stroke-width="4"
    fill="none"
  />
  <circle cx="20" cy="20" r="5" fill="#10b981" />
  <circle cx="20" cy="50" r="5" fill="#10b981" />
  <circle cx="20" cy="80" r="5" fill="#10b981" />
  <circle cx="50" cy="20" r="5" fill="#10b981" />
  <circle cx="50" cy="50" r="5" fill="#10b981" />
  <circle cx="50" cy="80" r="5" fill="#10b981" />
  <circle cx="65" cy="35" r="5" fill="#10b981" />
  <circle cx="80" cy="50" r="5" fill="#10b981" />
</svg>